<?xml version="1.0" standalone="no"?><!DOCTYPE svg PUBLIC "-//W3C//DTD SVG 1.1//EN" "http://www.w3.org/Graphics/SVG/1.1/DTD/svg11.dtd"><svg t="1524214116999" class="icon" style="" viewBox="0 0 1024 1024" version="1.1" xmlns="http://www.w3.org/2000/svg" p-id="2944" data-spm-anchor-id="a313x.7781069.0.i1" xmlns:xlink="http://www.w3.org/1999/xlink" width="64" height="64"><defs><style type="text/css"></style></defs><path d="M959.87 152H542V81.67c0-15.81-12-29.37-27.76-30.51A30 30 0 0 0 482 81.07V152H64.75c-15.81 0-29.37 12-30.51 27.76A30 30 0 0 0 64.15 212H114v563.43A82.56 82.56 0 0 0 196.57 858h233.54l-70.78 70.73C348.14 939.9 347 958 357.38 969.94a30 30 0 0 0 44 1.63l101.9-101.82a12.08 12.08 0 0 1 17.05 0l101.9 101.82a30 30 0 0 0 43.77-1.48c10.48-11.94 9.43-30.12-1.8-41.35L593.43 858h233A82.56 82.56 0 0 0 909 775.43V212h50.27c15.81 0 29.37-12 30.51-27.76A30 30 0 0 0 959.87 152zM826.45 798H196.57A22.56 22.56 0 0 1 174 775.43V212h675v563.43A22.56 22.56 0 0 1 826.45 798z" fill="#ffffff" p-id="2945"></path><path d="M234 337v336a40 40 0 0 0 40 40h475a40 40 0 0 0 40-40V337a40 40 0 0 0-40-40H274a40 40 0 0 0-40 40z m495 316H294V357h435z" fill="#ffffff" p-id="2946"></path></svg>